<svg width="40" height="40" viewBox="0 0 40 40" fill="none" xmlns="http://www.w3.org/2000/svg">
<path d="M9.23086 18.5332C1.43086 19.0832 1.43086 30.4332 9.23086 30.9832H12.4309" stroke="#FDFEFF" stroke-width="1.5" stroke-miterlimit="10" stroke-linecap="round" stroke-linejoin="round"/>
<path d="M9.31541 18.5328C3.96541 3.64942 26.532 -2.30057 29.1153 13.3328C36.332 14.2494 39.2487 23.8661 33.7821 28.6494C32.1154 30.1661 29.9654 30.9994 27.7154 30.9828H27.5653" stroke="#FDFEFF" stroke-width="1.5" stroke-miterlimit="10" stroke-linecap="round" stroke-linejoin="round"/>
<path d="M28.3327 27.5501C28.3327 28.7835 28.066 29.9501 27.566 30.9835C27.4326 31.2835 27.2827 31.5668 27.116 31.8335C25.6827 34.2501 23.0327 35.8835 19.9993 35.8835C16.966 35.8835 14.316 34.2501 12.8826 31.8335C12.716 31.5668 12.5661 31.2835 12.4327 30.9835C11.9327 29.9501 11.666 28.7835 11.666 27.5501C11.666 22.9501 15.3993 19.2168 19.9993 19.2168C24.5993 19.2168 28.3327 22.9501 28.3327 27.5501Z" stroke="#FDFEFF" stroke-width="1.5" stroke-miterlimit="10" stroke-linecap="round" stroke-linejoin="round"/>
<path d="M17.3984 27.5493L19.0484 29.1994L22.5984 25.916" stroke="#FDFEFF" stroke-width="1.5" stroke-linecap="round" stroke-linejoin="round"/>
</svg>
