<svg width="39" height="39" viewBox="0 0 39 39" fill="none" xmlns="http://www.w3.org/2000/svg">
<path d="M14.625 35.75H24.375C32.5 35.75 35.75 32.5 35.75 24.375V14.625C35.75 6.5 32.5 3.25 24.375 3.25H14.625C6.5 3.25 3.25 6.5 3.25 14.625V24.375C3.25 32.5 6.5 35.75 14.625 35.75Z" stroke="#F4F7FA" stroke-width="1.5" stroke-linecap="round" stroke-linejoin="round"/>
<path d="M11.375 14.2188C13 12.5938 15.6488 12.5938 17.29 14.2188" stroke="#F4F7FA" stroke-width="1.5" stroke-miterlimit="10" stroke-linecap="round" stroke-linejoin="round"/>
<path d="M21.7109 14.2188C23.3359 12.5938 25.9847 12.5938 27.6259 14.2188" stroke="#F4F7FA" stroke-width="1.5" stroke-miterlimit="10" stroke-linecap="round" stroke-linejoin="round"/>
<path d="M13.65 28.7623H25.35C26.1625 28.7623 26.8125 28.1123 26.8125 27.2998C26.8125 23.2536 23.5463 19.9873 19.5 19.9873C15.4537 19.9873 12.1875 23.2536 12.1875 27.2998C12.1875 28.1123 12.8375 28.7623 13.65 28.7623Z" stroke="#F4F7FA" stroke-width="1.5" stroke-miterlimit="10" stroke-linecap="round" stroke-linejoin="round"/>
</svg>
