<svg width="25" height="24" viewBox="0 0 25 24" fill="none" xmlns="http://www.w3.org/2000/svg">
<path fill-rule="evenodd" clip-rule="evenodd" d="M24.5918 12C24.5918 5.3731 19.2186 0 12.5918 0C5.9649 0 0.591797 5.3731 0.591797 12C0.591797 17.989 4.97941 22.9537 10.717 23.855V15.4696H7.66928V12H10.717V9.35562C10.717 6.34842 12.5091 4.68622 15.2496 4.68622C16.5625 4.68622 17.9361 4.92077 17.9361 4.92077V7.87398H16.4224C14.9324 7.87398 14.4666 8.79875 14.4666 9.7488V11.9999H17.7943L17.2628 15.4695H14.4665V23.8548C20.2041 22.9553 24.5916 17.9907 24.5916 11.9999L24.5918 12Z" fill="#1977F3"/>
<path fill-rule="evenodd" clip-rule="evenodd" d="M17.2634 15.4698L17.795 12.0002H14.4673V9.74912C14.4673 8.80074 14.9313 7.87431 16.4231 7.87431H17.9369V4.92109C17.9369 4.92109 16.5633 4.68652 15.2503 4.68652C12.5098 4.68652 10.7176 6.34709 10.7176 9.35594V12.0003H7.66992V15.4699H10.7176V23.8553C11.3285 23.9513 11.9546 24.0003 12.5925 24.0003C13.2303 24.0003 13.8564 23.9497 14.4673 23.8553V15.4699H17.2635L17.2634 15.4698Z" fill="#FEFEFE"/>
</svg>
