<svg width="132" height="56" viewBox="0 0 132 56" fill="none" xmlns="http://www.w3.org/2000/svg">
<rect x="0.591797" width="131" height="56" rx="4" fill="#FAFAFF"/>
<path d="M28.5911 41.3337C35.9549 41.3337 41.9245 35.3641 41.9245 28.0003C41.9245 20.6365 35.9549 14.667 28.5911 14.667C21.2273 14.667 15.2578 20.6365 15.2578 28.0003C15.2578 35.3641 21.2273 41.3337 28.5911 41.3337Z" stroke="#292D32" stroke-width="1.5" stroke-linecap="round" stroke-linejoin="round"/>
<path d="M23.2592 16H24.5926C21.9926 23.7867 21.9926 32.2133 24.5926 40H23.2592" stroke="#292D32" stroke-width="1.5" stroke-linecap="round" stroke-linejoin="round"/>
<path d="M32.5918 16C35.1918 23.7867 35.1918 32.2133 32.5918 40" stroke="#292D32" stroke-width="1.5" stroke-linecap="round" stroke-linejoin="round"/>
<path d="M16.5918 33.3333V32C24.3785 34.6 32.8051 34.6 40.5918 32V33.3333" stroke="#292D32" stroke-width="1.5" stroke-linecap="round" stroke-linejoin="round"/>
<path d="M16.5918 23.9998C24.3785 21.3998 32.8051 21.3998 40.5918 23.9998" stroke="#292D32" stroke-width="1.5" stroke-linecap="round" stroke-linejoin="round"/>
<path d="M67.2927 21.67V23.25H60.4127V28.01H65.9827V29.53H60.4127V34.42H67.2927V36H58.4627V21.67H67.2927ZM71.0838 21.67C71.2571 21.67 71.3838 21.6933 71.4638 21.74C71.5504 21.78 71.6471 21.8667 71.7538 22L80.0538 32.8C80.0338 32.6267 80.0204 32.46 80.0138 32.3C80.0071 32.1333 80.0038 31.9733 80.0038 31.82V21.67H81.7038V36H80.7238C80.5704 36 80.4404 35.9733 80.3338 35.92C80.2338 35.8667 80.1338 35.7767 80.0338 35.65L71.7438 24.86C71.7571 25.0267 71.7671 25.19 71.7738 25.35C71.7804 25.51 71.7838 25.6567 71.7838 25.79V36H70.0838V21.67H71.0838Z" fill="#07070A"/>
<path d="M115.512 24.9502L108.992 31.4702C108.222 32.2402 106.962 32.2402 106.192 31.4702L99.6719 24.9502" stroke="#292D32" stroke-width="1.5" stroke-miterlimit="10" stroke-linecap="round" stroke-linejoin="round"/>
</svg>
