<svg width="25" height="24" viewBox="0 0 25 24" fill="none" xmlns="http://www.w3.org/2000/svg">
<path d="M12.6024 5.88583C12.3913 5.88583 12.1826 5.89659 11.9769 5.91766C11.7713 5.93873 11.5684 5.96994 11.3691 6.01091C11.1697 6.05189 10.9739 6.10264 10.782 6.16254L10.2187 6.36936L9.68239 6.62831L9.17633 6.93624L8.70348 7.28993L8.26714 7.68628L7.87041 8.12223L7.51634 8.59454L7.20803 9.10014L6.94893 9.63581C6.87104 9.81903 6.80176 10.0069 6.74179 10.1986C6.68183 10.3904 6.63108 10.5861 6.59001 10.7853C6.54896 10.9844 6.51774 11.187 6.49659 11.3925C6.47546 11.598 6.46484 11.8066 6.46484 12.0174C6.46484 12.2282 6.47561 12.4367 6.49659 12.6422C6.51748 12.8461 6.54864 13.0488 6.59001 13.2496C6.63108 13.4495 6.68183 13.6444 6.74179 13.8362C6.80176 14.028 6.87096 14.2157 6.94893 14.399L7.20803 14.9347L7.51634 15.4402L7.87041 15.9126L8.26714 16.3486L8.70348 16.745L9.17633 17.0986L9.68239 17.4065L10.2187 17.6655L10.782 17.8723L11.3691 18.024C11.57 18.0653 11.7729 18.0965 11.9769 18.1173C12.1847 18.1385 12.3935 18.1491 12.6024 18.149C12.8134 18.149 13.0222 18.1383 13.2278 18.1173C13.4319 18.0965 13.6347 18.0653 13.8357 18.024L14.4228 17.8723L14.9861 17.6655L15.5223 17.4065L16.0285 17.0986L16.5013 16.745L16.9377 16.3486L17.3345 15.9126L17.6885 15.4402L17.9969 14.9347L18.256 14.399L18.463 13.8362C18.523 13.6444 18.5739 13.4487 18.6149 13.2496L18.7082 12.6422C18.7294 12.4366 18.74 12.2281 18.74 12.0173C18.74 11.8065 18.7294 11.598 18.7082 11.3924C18.6874 11.1886 18.6562 10.9859 18.6149 10.7852C18.5739 10.5853 18.523 10.3904 18.463 10.1985L18.256 9.63574L17.9969 9.10006L17.6885 8.59446L17.3345 8.12214L16.9377 7.68619L16.5013 7.28984L16.0285 6.93618L15.5223 6.62824L14.9861 6.36929L14.4228 6.16246L13.8357 6.01084L13.2278 5.91758C13.02 5.89636 12.8113 5.88573 12.6024 5.88574V5.88583ZM12.6024 8.00221C12.7419 8.00221 12.8796 8.00913 13.0153 8.02281L13.4151 8.08333L13.8013 8.18173L14.1711 8.31606L14.5227 8.48444L14.8533 8.68473L15.1624 8.91516L15.4474 9.17364L15.7061 9.45828L15.9367 9.76706L16.1373 10.0981L16.3056 10.4495C16.3562 10.5698 16.4011 10.693 16.4402 10.819C16.4792 10.945 16.5121 11.0738 16.5386 11.205C16.5651 11.3362 16.5847 11.4696 16.5991 11.6052L16.6197 12.0178C16.6197 12.1572 16.6128 12.2948 16.5991 12.4304C16.5854 12.566 16.5653 12.6995 16.5386 12.8306C16.5119 12.9617 16.479 13.0905 16.4402 13.2166L16.3056 13.5861L16.1373 13.9375L15.9367 14.2685L15.7061 14.5773L15.4474 14.8619L15.1624 15.1204L14.8533 15.3509L14.5227 15.5512L14.1711 15.7195L13.8013 15.8539L13.4151 15.9523L13.0153 16.0127C12.8781 16.0265 12.7402 16.0333 12.6023 16.0333C12.4644 16.0333 12.3265 16.0265 12.1893 16.0127L11.7895 15.9523C11.6582 15.9257 11.5294 15.8928 11.4032 15.8539L11.0334 15.7195L10.6818 15.5512L10.3512 15.3509L10.0421 15.1204L9.75713 14.8619L9.49841 14.5773L9.26774 14.2685L9.06723 13.9375L8.89884 13.5861L8.76429 13.2166L8.66588 12.8306L8.60538 12.4304C8.59161 12.2933 8.58473 12.1556 8.58476 12.0178C8.58473 11.88 8.59161 11.7423 8.60538 11.6052C8.61898 11.4696 8.63919 11.3361 8.66588 11.205C8.69229 11.0748 8.72516 10.946 8.76438 10.8191L8.89893 10.4496L9.06731 10.0982L9.26783 9.76714L9.49848 9.45836L9.75721 9.17373L10.0421 8.91523L10.3512 8.68481L10.6818 8.48451L11.0334 8.31613C11.1545 8.26531 11.2779 8.22048 11.4033 8.18181L11.7896 8.08339C11.9209 8.05679 12.0545 8.03649 12.1894 8.02289C12.3267 8.00914 12.4645 8.00226 12.6025 8.00228L12.6024 8.00221Z" fill="url(#paint0_radial_1686_833)"/>
<path d="M18.9888 4.1416C18.9402 4.1416 18.8915 4.14407 18.843 4.14898C18.7945 4.15388 18.7463 4.16122 18.6985 4.17097C18.6508 4.18072 18.6035 4.19285 18.557 4.20733C18.5103 4.22183 18.4647 4.23867 18.4197 4.25777C18.3748 4.2769 18.331 4.29829 18.2882 4.32182C18.2453 4.34532 18.2038 4.37095 18.1637 4.39863C18.1233 4.42633 18.0845 4.45605 18.0473 4.48767C18.01 4.51925 17.9743 4.55268 17.9403 4.58785C17.9065 4.62303 17.8743 4.65992 17.844 4.69834C17.8137 4.73677 17.7853 4.77668 17.759 4.81797C17.7327 4.85922 17.7085 4.90177 17.6863 4.94545C17.6643 4.98917 17.6443 5.03397 17.6267 5.0797C17.609 5.1254 17.5937 5.17198 17.5805 5.21923C17.5675 5.2665 17.5568 5.31438 17.5487 5.36272C17.5403 5.41103 17.5345 5.45973 17.531 5.50865C17.5285 5.54328 17.5273 5.57802 17.5273 5.61275C17.5273 5.66182 17.5297 5.71085 17.5347 5.75968C17.5395 5.80848 17.5468 5.857 17.5565 5.90507C17.5662 5.95314 17.5782 6.00068 17.5925 6.04753C17.607 6.0944 17.6237 6.14052 17.6427 6.1857C17.6617 6.2309 17.6828 6.27512 17.7063 6.31818C17.7297 6.36123 17.7552 6.40308 17.7827 6.44358C17.8102 6.48405 17.8397 6.5231 17.871 6.5606C17.9025 6.59813 17.9357 6.63407 17.9707 6.66825C18.0057 6.70242 18.0422 6.7348 18.0805 6.76529C18.1187 6.79579 18.1583 6.82433 18.1993 6.85085C18.2403 6.87737 18.2827 6.9018 18.326 6.92405C18.3695 6.94632 18.414 6.96638 18.4593 6.98417C18.5048 7.00195 18.551 7.01742 18.598 7.03054C18.645 7.04364 18.6925 7.05437 18.7405 7.06267C18.7885 7.07102 18.837 7.07695 18.8855 7.08044C18.92 7.0829 18.9545 7.08412 18.989 7.08413C19.0377 7.08413 19.0865 7.0817 19.135 7.07682C19.1833 7.07192 19.2317 7.06458 19.2793 7.05483C19.3272 7.0451 19.3743 7.03295 19.421 7.01847C19.4675 7.00397 19.5133 6.98714 19.5582 6.96804C19.603 6.94892 19.647 6.92757 19.6897 6.90405C19.7325 6.88054 19.774 6.85487 19.8143 6.82717C19.8545 6.79949 19.8933 6.7698 19.9307 6.73822C19.9678 6.7066 20.0035 6.67315 20.0375 6.63795C20.0715 6.60277 20.1037 6.56588 20.1338 6.52747C20.1642 6.48903 20.1925 6.44912 20.2188 6.40783C20.2452 6.36657 20.2695 6.32398 20.2915 6.28028C20.3137 6.23655 20.3337 6.19175 20.3513 6.14603C20.369 6.10032 20.3843 6.05375 20.3973 6.00648C20.4103 5.95923 20.421 5.91135 20.4293 5.86302C20.4377 5.8147 20.4435 5.76598 20.4468 5.71708C20.4493 5.68243 20.4507 5.64772 20.4507 5.61298C20.4507 5.56393 20.4482 5.51492 20.4433 5.46612C20.4385 5.41732 20.4312 5.3688 20.4215 5.32073C20.4118 5.27267 20.3997 5.22512 20.3853 5.17827C20.3708 5.1314 20.3542 5.08529 20.3352 5.0401C20.3162 4.9949 20.295 4.95068 20.2717 4.90762C20.2483 4.86457 20.2228 4.82272 20.1953 4.78222C20.1677 4.74172 20.1382 4.70265 20.1068 4.66512C20.0753 4.6276 20.0422 4.59167 20.0073 4.55748C19.9723 4.52332 19.9357 4.49093 19.8975 4.46045C19.8593 4.42997 19.8197 4.40144 19.7787 4.37495C19.7377 4.34844 19.6953 4.324 19.6518 4.30175C19.6083 4.27948 19.5638 4.25942 19.5185 4.24164C19.4732 4.22385 19.4268 4.20838 19.3798 4.19527C19.333 4.18213 19.2853 4.17138 19.2373 4.16305C19.1893 4.15473 19.141 4.14882 19.0923 4.14537C19.0578 4.1429 19.0233 4.14168 18.9888 4.14168V4.1416Z" fill="url(#paint1_radial_1686_833)"/>
<path d="M11.4383 0.021708C10.7707 0.0206315 10.175 0.0233992 9.63989 0.030934L8.20519 0.0693773C7.78016 0.08783 7.40464 0.111894 7.06758 0.143033C6.89904 0.158564 6.74004 0.17594 6.58934 0.195085C6.44593 0.21316 6.30293 0.234207 6.16039 0.25821C6.02468 0.281277 5.89589 0.306187 5.77241 0.33325C5.64894 0.360315 5.53099 0.389532 5.41719 0.420902C5.30596 0.451577 5.19558 0.485319 5.08621 0.522085C4.97903 0.558222 4.87446 0.596512 4.77119 0.637415C4.56468 0.719223 4.36324 0.811023 4.15579 0.913898C3.99618 0.993092 3.84871 1.07328 3.70863 1.15817C3.56854 1.24305 3.43583 1.3327 3.30589 1.43035C3.17208 1.5314 3.04309 1.6387 2.91939 1.75189C2.79006 1.86968 2.65798 1.99923 2.52073 2.14401C2.34828 2.32493 2.19842 2.49361 2.06541 2.65914C1.9989 2.74188 1.93662 2.82369 1.87796 2.90596C1.81994 2.98703 1.76448 3.06991 1.71165 3.15444C1.65937 3.23826 1.60985 3.32361 1.56249 3.41141C1.51439 3.50073 1.46893 3.59144 1.42617 3.68343C1.33867 3.87134 1.25702 4.07371 1.17552 4.29961C1.11506 4.46659 1.06092 4.63583 1.01321 4.80689C0.964543 4.98174 0.921257 5.16466 0.882658 5.36248C0.844062 5.56031 0.810385 5.77306 0.780783 6.00833C0.748885 6.26623 0.723403 6.52488 0.704359 6.78404C0.682831 7.06898 0.664993 7.38253 0.650384 7.73151L0.615786 8.89189L0.597179 10.3064L0.591797 12.0161L0.607559 14.5024L0.656766 16.3861L0.694671 17.1218L0.742033 17.7317C0.757216 17.896 0.776212 18.0598 0.799007 18.2233C0.819765 18.3685 0.842063 18.4955 0.866052 18.6055C0.914727 18.829 0.972283 19.0505 1.03859 19.2695C1.10207 19.4792 1.17467 19.6858 1.25617 19.8892C1.33629 20.0883 1.42394 20.2803 1.51928 20.4652C1.61462 20.65 1.71765 20.8277 1.82836 20.9983C1.93908 21.1688 2.05749 21.3325 2.18389 21.4892C2.31014 21.6458 2.44444 21.7957 2.58624 21.9385C2.72824 22.0815 2.87803 22.2175 3.03588 22.3468C3.19558 22.4777 3.36161 22.6007 3.53333 22.7152C3.69271 22.8217 3.85041 22.9193 4.00926 23.0088C4.16809 23.0985 4.32833 23.1797 4.49303 23.2537C4.65771 23.3275 4.82656 23.394 5.00294 23.4538C5.17931 23.5137 5.36308 23.5668 5.55729 23.614C5.75151 23.6613 5.95709 23.7027 6.17469 23.7388C6.39228 23.775 6.62486 23.806 6.87336 23.8327C7.12186 23.8593 7.38696 23.8813 7.67183 23.8998C7.95669 23.9183 8.26116 23.933 8.58831 23.9448C9.09369 23.9632 9.85871 23.9738 10.7409 23.978L13.5969 23.9722L16.3013 23.9343L17.3296 23.9053L17.9994 23.871C18.1433 23.8592 18.2839 23.8453 18.4198 23.8292C18.5556 23.813 18.6894 23.7945 18.8199 23.7733C18.9503 23.7523 19.0778 23.7288 19.2029 23.7027C19.3268 23.6768 19.4499 23.648 19.5723 23.6163C19.6934 23.5855 19.8129 23.5505 19.9313 23.5133C20.0494 23.4763 20.1666 23.4362 20.2829 23.393C20.3999 23.3497 20.5158 23.3035 20.6306 23.2547C20.7461 23.2053 20.8614 23.1528 20.9773 23.097C21.1551 23.0113 21.2983 22.9398 21.4239 22.8702C21.5423 22.8053 21.6561 22.7328 21.7649 22.653C21.8723 22.574 21.9789 22.484 22.1019 22.3707C22.2249 22.2573 22.3644 22.1208 22.5369 21.9482C22.6888 21.7965 22.8166 21.6647 22.9269 21.5448C23.0373 21.425 23.1303 21.3172 23.2118 21.2132C23.2894 21.1145 23.3618 21.0118 23.4286 20.9055C23.4938 20.8017 23.5538 20.6938 23.6148 20.5743C23.7068 20.3945 23.7886 20.2278 23.8618 20.067C23.9329 19.9122 23.9979 19.7543 24.0566 19.5943C24.1144 19.4355 24.1646 19.274 24.2068 19.1103C24.2501 18.942 24.2874 18.7642 24.3198 18.5692C24.3519 18.3742 24.3793 18.162 24.4029 17.925C24.4266 17.6882 24.4468 17.4262 24.4644 17.132L24.5114 16.1442L24.5516 14.9158L24.5804 13.5472L24.5914 12.1162L24.5658 9.30561L24.5314 8.04674L24.4846 6.96588L24.4261 6.12319C24.4049 5.88869 24.3819 5.70401 24.3578 5.57914C24.3308 5.44118 24.3008 5.30386 24.2676 5.16726C24.2353 5.03436 24.1998 4.90226 24.1611 4.77108C24.1234 4.64326 24.0824 4.51643 24.0383 4.39071C23.9946 4.26654 23.9483 4.14498 23.8998 4.02604C23.8514 3.90709 23.7989 3.79093 23.7444 3.67721C23.6898 3.56349 23.6326 3.45254 23.5726 3.34413C23.5124 3.23573 23.4499 3.13001 23.3844 3.02689C23.3191 2.92379 23.2509 2.82329 23.1799 2.72549C23.1094 2.62801 23.0358 2.53276 22.9593 2.43986C22.8831 2.34749 22.8041 2.25754 22.7223 2.17014C22.6406 2.08288 22.5561 1.99821 22.4691 1.91628C22.3819 1.83431 22.2923 1.75496 22.1998 1.67823C22.1068 1.60124 22.0116 1.52717 21.9139 1.4561C21.8154 1.38432 21.7148 1.31555 21.6119 1.2499C21.5078 1.18331 21.4018 1.11982 21.2938 1.05952C21.1841 0.998214 21.0724 0.940062 20.9594 0.885144C20.7716 0.793879 20.5979 0.712919 20.4276 0.641107C20.2599 0.569837 20.0891 0.506539 19.9156 0.451427C19.7411 0.396452 19.5594 0.349322 19.3596 0.308648C19.1596 0.267975 18.9416 0.234068 18.6949 0.205235C18.4483 0.176403 18.1728 0.153107 17.8576 0.133732C17.5426 0.114356 17.1882 0.0991317 16.7835 0.0868298L15.4083 0.0560757L13.6678 0.035547L11.439 0.0218605L11.4383 0.021708ZM12.5958 2.13624L15.8099 2.15454L17.0224 2.17791C17.3563 2.18729 17.6111 2.19829 17.7604 2.21098C17.9551 2.22736 18.1403 2.24788 18.3176 2.27249C18.4876 2.29598 18.6569 2.32518 18.8249 2.36006C18.9864 2.39389 19.1404 2.43233 19.2879 2.47569C19.4353 2.51906 19.5761 2.56766 19.7111 2.62139C19.8463 2.67514 19.9754 2.73426 20.0998 2.79901C20.2231 2.86326 20.3429 2.93396 20.4588 3.01083C20.5741 3.08733 20.6853 3.16976 20.7933 3.25856C20.9011 3.34736 21.0058 3.44254 21.1079 3.54434C21.2159 3.65176 21.3154 3.76116 21.4071 3.87403C21.4984 3.98621 21.5831 4.10378 21.6603 4.22609C21.7384 4.35016 21.8088 4.47894 21.8711 4.61168C21.9348 4.74701 21.9919 4.89001 22.0433 5.04201C22.0948 5.19403 22.1404 5.35556 22.1809 5.52818C22.2234 5.71118 22.2589 5.89571 22.2876 6.08138C22.3183 6.27821 22.3446 6.48811 22.3669 6.71284C22.3891 6.93758 22.4076 7.17724 22.4228 7.43366C22.4349 7.63933 22.4456 7.91074 22.4546 8.23128L22.4771 9.32423L22.4943 12.0014L22.4748 14.6761L22.4513 15.7659L22.4188 16.5585C22.3964 16.9297 22.3728 17.2417 22.3444 17.5132C22.3303 17.649 22.3148 17.7747 22.2978 17.8925C22.2818 18.0038 22.2628 18.1147 22.2409 18.225C22.2209 18.3257 22.1978 18.4257 22.1713 18.525C22.1461 18.6195 22.1176 18.7133 22.0861 18.8062C22.0543 18.8993 22.0198 18.9915 21.9824 19.0825C21.9429 19.1788 21.9013 19.274 21.8574 19.3683C21.8184 19.4525 21.7774 19.5345 21.7341 19.6142C21.6913 19.6932 21.6456 19.7705 21.5976 19.8463C21.5499 19.9215 21.4999 19.9945 21.4476 20.0652C21.3956 20.1355 21.3411 20.204 21.2841 20.2705C21.2274 20.3368 21.1683 20.4008 21.1068 20.4628C21.0453 20.5247 20.9814 20.5843 20.9153 20.642C20.8493 20.6997 20.7806 20.7552 20.7096 20.8085C20.6388 20.8618 20.5653 20.913 20.4894 20.962C20.4134 21.0112 20.3353 21.0582 20.2544 21.1032C20.1736 21.148 20.0903 21.1908 20.0046 21.2317C19.9173 21.2732 19.8289 21.312 19.7393 21.3482C19.6468 21.3855 19.5533 21.4202 19.4588 21.4523C19.2664 21.5178 19.0638 21.5753 18.8503 21.6248C18.6279 21.6763 18.4034 21.7183 18.1774 21.7508C18.0904 21.7635 17.8908 21.7755 17.6048 21.7865L16.5149 21.8168L13.4248 21.857L10.1905 21.862L8.92031 21.8485L8.09554 21.8228L7.48738 21.78C7.29854 21.7642 7.12293 21.7465 6.95839 21.7263C6.79386 21.7063 6.64063 21.684 6.49646 21.6587C6.35984 21.6352 6.22406 21.6068 6.08934 21.5742C5.96651 21.5443 5.84493 21.5095 5.72491 21.4698C5.60919 21.4313 5.49854 21.389 5.39091 21.3425C5.28326 21.296 5.17869 21.245 5.07513 21.1893C4.97156 21.1337 4.86908 21.0733 4.76543 21.0073C4.68724 20.9577 4.61166 20.9073 4.53893 20.8542C4.46619 20.8008 4.39591 20.7477 4.32826 20.692C4.26059 20.6363 4.19563 20.579 4.13296 20.52C4.07071 20.4612 4.01061 20.4002 3.95274 20.3372C3.89508 20.2742 3.83994 20.2095 3.78704 20.1425C3.73394 20.0752 3.68334 20.0058 3.63536 19.9348C3.58664 19.8627 3.54056 19.7888 3.49719 19.7135C3.45336 19.6373 3.41169 19.5587 3.37209 19.4773C3.33183 19.3947 3.29426 19.3107 3.25946 19.2255C3.22409 19.1387 3.19056 19.0492 3.15904 18.9568C3.09599 18.7718 3.04064 18.575 2.99251 18.3652C2.94438 18.1553 2.90331 17.9323 2.86856 17.6947C2.83381 17.4572 2.80583 17.2052 2.78353 16.9375C2.76708 16.7403 2.75401 16.4332 2.74401 16.0456L2.72309 14.6675L2.73078 11.1541L2.79129 7.79694L2.83743 6.61413L2.86356 6.22314C2.87264 6.11874 2.88203 6.04139 2.89163 5.99494C2.92331 5.84218 2.95521 5.70001 2.98819 5.56693C3.01901 5.44136 3.05329 5.31669 3.09099 5.19303C3.12683 5.07631 3.16458 4.96698 3.20494 4.86341C3.24386 4.76308 3.28724 4.66454 3.33496 4.56809C3.38154 4.47429 3.43161 4.38448 3.48596 4.29706C3.54033 4.20964 3.59899 4.12484 3.66296 4.04049C3.72693 3.95614 3.79581 3.87288 3.87078 3.78846C3.94574 3.70404 4.02671 3.61878 4.11451 3.53089C4.21684 3.42798 4.32339 3.32934 4.43389 3.23526C4.53824 3.14649 4.64704 3.06311 4.75989 2.98546C4.87084 2.90856 4.98464 2.84014 5.10313 2.77724C5.22161 2.71436 5.34478 2.65753 5.47433 2.60641C5.60388 2.55528 5.73998 2.50953 5.88413 2.46801C6.03559 2.42553 6.18873 2.38928 6.34314 2.35936C6.50553 2.32754 6.67799 2.29978 6.86213 2.27556C7.04628 2.25134 7.24218 2.23043 7.45163 2.21228C7.59771 2.19968 7.84943 2.18844 8.18089 2.17899L9.38724 2.15516L12.5963 2.13554L12.5958 2.13624Z" fill="url(#paint2_radial_1686_833)"/>
<defs>
<radialGradient id="paint0_radial_1686_833" cx="0" cy="0" r="1" gradientUnits="userSpaceOnUse" gradientTransform="translate(4.41558 25.7246) rotate(-9.53101) scale(50.723 30.7885)">
<stop stop-color="#FED576"/>
<stop offset="0.263" stop-color="#F47133"/>
<stop offset="0.609" stop-color="#BC3081"/>
<stop offset="1" stop-color="#4C63D2"/>
</radialGradient>
<radialGradient id="paint1_radial_1686_833" cx="0" cy="0" r="1" gradientUnits="userSpaceOnUse" gradientTransform="translate(4.41561 25.7247) rotate(-9.53102) scale(50.723 30.7885)">
<stop stop-color="#FED576"/>
<stop offset="0.263" stop-color="#F47133"/>
<stop offset="0.609" stop-color="#BC3081"/>
<stop offset="1" stop-color="#4C63D2"/>
</radialGradient>
<radialGradient id="paint2_radial_1686_833" cx="0" cy="0" r="1" gradientUnits="userSpaceOnUse" gradientTransform="translate(4.41536 25.7243) rotate(-9.53101) scale(50.723 30.7885)">
<stop stop-color="#FED576"/>
<stop offset="0.263" stop-color="#F47133"/>
<stop offset="0.609" stop-color="#BC3081"/>
<stop offset="1" stop-color="#4C63D2"/>
</radialGradient>
</defs>
</svg>
