<svg width="25" height="24" viewBox="0 0 25 24" fill="none" xmlns="http://www.w3.org/2000/svg">
<path d="M21.0409 20.4497H17.4848V14.8805C17.4848 13.5525 17.4611 11.843 15.6353 11.843C13.7832 11.843 13.4998 13.2899 13.4998 14.7838V20.4493H9.94379V8.99691H13.3576V10.562H13.4054C13.747 9.97784 14.2407 9.49727 14.8338 9.17151C15.427 8.84573 16.0974 8.68694 16.7736 8.71205C20.3778 8.71205 21.0424 11.0828 21.0424 14.1671L21.0409 20.4497ZM5.93141 7.43145C5.52327 7.43153 5.12425 7.31057 4.78485 7.08386C4.44544 6.85716 4.18091 6.53491 4.02465 6.15784C3.8684 5.78077 3.82745 5.36584 3.907 4.96551C3.98655 4.56519 4.18303 4.19743 4.47159 3.90877C4.76014 3.6201 5.1278 3.4235 5.52809 3.34379C5.92838 3.26409 6.3433 3.30489 6.7204 3.46101C7.0975 3.61714 7.41984 3.88158 7.64665 4.22092C7.87347 4.56025 7.99458 4.95923 7.99465 5.36739C7.9947 5.6384 7.94136 5.90676 7.8377 6.15715C7.73403 6.40756 7.58209 6.63508 7.3905 6.82674C7.19892 7.01842 6.97144 7.17047 6.72107 7.27422C6.47072 7.37797 6.20241 7.4314 5.93141 7.43145ZM7.70941 20.4497H4.14969V8.99691H7.70941V20.4497ZM22.8137 0.00163516H2.36278C1.8986 -0.00360328 1.45131 0.175664 1.11924 0.500043C0.787159 0.824423 0.597462 1.26737 0.591797 1.73156V22.2681C0.597268 22.7326 0.786853 23.1757 1.11892 23.5006C1.45098 23.8253 1.89837 24.0049 2.36278 23.9999H22.8137C23.2791 24.0057 23.7277 23.8266 24.0611 23.5019C24.3943 23.1773 24.5852 22.7334 24.5918 22.2681V1.73009C24.5851 1.26497 24.394 0.821516 24.0608 0.497145C23.7274 0.172773 23.2789 -0.00598144 22.8137 0.000152822" fill="#0A66C2"/>
</svg>
