<svg width="33" height="24" viewBox="0 0 33 24" fill="none" xmlns="http://www.w3.org/2000/svg">
<path d="M17.2346 23.9685L10.6954 23.8383C8.57815 23.793 6.45565 23.8835 4.37994 23.4137C1.22229 22.7113 0.998595 19.2685 0.764517 16.3805C0.441984 12.3203 0.566846 8.18645 1.17551 4.16018C1.51912 1.90103 2.87138 0.552975 4.96257 0.40628C12.0219 -0.126093 19.1282 -0.0630013 26.1719 0.18537C26.9159 0.208138 27.6649 0.332585 28.3984 0.474238C32.0192 1.16513 32.1075 5.06677 32.3422 8.35122C32.5763 11.6695 32.4774 15.0049 32.03 18.3007C31.6711 21.0295 30.9844 23.3178 28.0862 23.5387C24.4549 23.8277 20.907 24.0602 17.2656 23.9862C17.2658 23.9685 17.245 23.9685 17.2346 23.9685ZM13.3901 17.06C16.1266 15.3498 18.8108 13.668 21.5316 11.9692C18.79 10.2589 16.1109 8.57717 13.3901 6.87837V17.06Z" fill="#FF0000"/>
</svg>
