<svg width="32" height="24" viewBox="0 0 32 24" fill="none" xmlns="http://www.w3.org/2000/svg">
<path d="M28.3573 5.85796C28.3766 6.11326 28.3766 6.36854 28.3766 6.62619C28.3766 14.4768 21.8567 23.5308 9.93498 23.5308V23.5262C6.41327 23.5308 2.9647 22.6062 0 20.8627C0.512085 20.9192 1.02674 20.9473 1.54267 20.9485C4.46118 20.9508 7.29625 20.0532 9.5923 18.4003C6.81883 18.352 4.38674 16.6945 3.5371 14.2744C4.50867 14.4462 5.50974 14.4109 6.46332 14.1721C3.43958 13.6121 1.26417 11.1768 1.26417 8.34854C1.26417 8.32266 1.26417 8.29796 1.26417 8.27326C2.16514 8.73326 3.1739 8.98854 4.20578 9.01677C1.35786 7.27207 0.48 3.79914 2.19979 1.08384C5.49049 4.79561 10.3457 7.05207 15.5576 7.2909C15.0353 5.22737 15.7489 3.06502 17.4327 1.61442C20.0433 -0.634984 24.1489 -0.519691 26.6027 1.87207C28.0544 1.60972 29.4456 1.12149 30.7187 0.429721C30.2349 1.80502 29.2222 2.97326 27.8695 3.71561C29.1542 3.57677 30.4095 3.26149 31.5915 2.78031C30.7213 3.97561 29.6253 5.01677 28.3573 5.85796Z" fill="#1D9BF0"/>
</svg>
