<svg width="32" height="32" viewBox="0 0 32 32" fill="none" xmlns="http://www.w3.org/2000/svg">
<path d="M19.867 2.66669H12.1337C11.227 2.66669 9.94699 3.20003 9.30699 3.84003L3.84033 9.3067C3.20033 9.9467 2.66699 11.2267 2.66699 12.1334V19.8667C2.66699 20.7733 3.20033 22.0533 3.84033 22.6933L9.30699 28.16C9.94699 28.8 11.227 29.3334 12.1337 29.3334H19.867C20.7737 29.3334 22.0537 28.8 22.6937 28.16L28.1603 22.6933C28.8003 22.0533 29.3337 20.7733 29.3337 19.8667V12.1334C29.3337 11.2267 28.8003 9.9467 28.1603 9.3067L22.6937 3.84003C22.0537 3.20003 20.7737 2.66669 19.867 2.66669Z" stroke="#D72733" stroke-width="2" stroke-linecap="round" stroke-linejoin="round"/>
<path d="M11.333 20.6666L20.6663 11.3333" stroke="#D72733" stroke-width="2" stroke-linecap="round" stroke-linejoin="round"/>
<path d="M20.6663 20.6666L11.333 11.3333" stroke="#D72733" stroke-width="2" stroke-linecap="round" stroke-linejoin="round"/>
</svg>
